<svg xmlns="http://www.w3.org/2000/svg" version="1.1" xmlns:xlink="http://www.w3.org/1999/xlink" xmlns:svgjs="http://svgjs.dev/svgjs" width="1000" height="625" viewBox="0 0 1000 625"><g transform="matrix(1,0,0,1,0,0)"><svg viewBox="0 0 576 360" data-background-color="#f3f8f9" preserveAspectRatio="xMidYMid meet" height="625" width="1000" xmlns="http://www.w3.org/2000/svg" xmlns:xlink="http://www.w3.org/1999/xlink"><g id="tight-bounds" transform="matrix(1,0,0,1,0,0)"><svg viewBox="0 0 576 360" height="360" width="576"><g><svg></svg></g><g><svg viewBox="0 0 576 360" height="360" width="576"><g><path xmlns="http://www.w3.org/2000/svg" d="M132.115 90l155.885-90 155.885 90v180l-155.885 90-155.885-90z" fill="#010c80" fill-rule="nonzero" stroke="none" stroke-width="1" stroke-linecap="butt" stroke-linejoin="miter" stroke-miterlimit="10" stroke-dasharray="" stroke-dashoffset="0" font-family="none" font-weight="none" font-size="none" text-anchor="none" style="mix-blend-mode: normal" data-fill-palette-color="tertiary"></path></g><g transform="matrix(1,0,0,1,202.68711933822686,99)"><svg viewBox="0 0 170.6257613235463 162" height="162" width="170.6257613235463"><g><svg viewBox="0 0 170.6257613235463 162" height="162" width="170.6257613235463"><g><svg viewBox="0 0 230.4 218.75243052673306" height="162" width="170.6257613235463"><g transform="matrix(1,0,0,1,0,109.8476871148052)"><svg viewBox="0 0 230.4 108.90474341192788" height="108.90474341192788" width="230.4"><g><svg viewBox="0 0 230.4 108.90474341192788" height="108.90474341192788" width="230.4"><g><svg viewBox="0 0 230.4 108.90474341192788" height="108.90474341192788" width="230.4"><g transform="matrix(1,0,0,1,0,0)"><svg width="230.4" viewBox="2.5 -35.20000076293945 75.10416412353516 35.5" height="108.90474341192788" data-palette-color="#1ebbd7"><path d="M12.5-12.75L12.5-0.7Q12.5 0.05 7.8 0.05L7.8 0.05 5-0.1Q2.5-0.3 2.5-0.8L2.5-0.8 2.5-34.35Q2.5-35.2 7.5-35.2 12.5-35.2 12.5-34.35L12.5-34.35 12.5-21.55 18.6-34.35Q18.95-35.05 22.6-35.05L22.6-35.05Q29.25-35.05 29.6-33.9L29.6-33.9Q29.6-33.8 29.55-33.7L29.55-33.7 20.85-18 30.95-4.05Q30.95-3.95 30-3.2L30-3.2Q27.7-1.2 24.6-0.05L24.6-0.05Q23.65 0.3 22.7 0.3L22.7 0.3 21.5 0.2Q19.9-0.2 19-1.85L19-1.85 13.3-12.75 12.5-12.75ZM37.2-1.25L32.05-34.5Q31.9-35.05 37.1-35.05L37.1-35.05Q42.85-35.05 43-34.1L43-34.1 45.45-13.05 50.75-34.35Q51-35.1 54.65-35.1 58.3-35.1 58.55-34.4L58.55-34.4 63.75-12.95 66.65-34.2Q66.75-34.75 68.95-34.95 71.15-35.15 72.5-35.15L72.5-35.15Q77.75-35.15 77.6-34.45L77.6-34.45 71.55-1.3Q71.35-0.55 68.7-0.2 66.05 0.15 64.4 0.15L64.4 0.15Q58.2 0.15 57.9-1.25L57.9-1.25 54.5-15 50.8-1.3Q50.6-0.4 47.3 0L47.3 0Q45.6 0.15 43.9 0.15L43.9 0.15 40.7 0Q37.4-0.35 37.2-1.25L37.2-1.25Z" opacity="1" transform="matrix(1,0,0,1,0,0)" fill="#1ebbd7" class="undefined-text-0" data-fill-palette-color="quaternary" id="text-0"></path></svg></g></svg></g></svg></g></svg></g><g transform="matrix(1,0,0,1,44.0064,0)"><svg viewBox="0 0 142.3872 84.13789090909091" height="84.13789090909091" width="142.3872"><g><svg xmlns="http://www.w3.org/2000/svg" viewBox="2 12 44 26" x="0" y="0" height="84.13789090909091" width="142.3872" class="icon-icon-0" data-fill-palette-color="quaternary" id="icon-0"><path d="M46 22H41.931A7.996 7.996 0 0 0 34 15H23v4H15.361L7 12v7H2v2H7v7l8.361-7H23v3H18V36H8v2H20V26h3v5H34a7.996 7.996 0 0 0 7.931-7H46ZM9 23.717V16.283L13.44 20ZM34 29H25V17h9a6 6 0 0 1 0 12Z" fill="#1ebbd7" data-fill-palette-color="quaternary"></path></svg></g></svg></g><g></g></svg></g></svg></g></svg></g></svg></g><defs></defs></svg><rect width="576" height="360" fill="none" stroke="none" visibility="hidden"></rect></g></svg></g></svg>